# xmcd CD database file
#
# Track frame offsets:
#	150
#	17652
#	40529
#	57214
#	76071
#	93985
#	111700
#	126576
#	142202
#	157228
#	175653
#	202553
#
# Disc length: 3569 seconds
#
# Revision: 5
# Processed by: cddbd v1.5.2PL0 Copyright (c) Steve Scherf et al.
# Submitted via: CDex 1.51
#
DISCID=9e0def0c
DTITLE=Billy Ray Cyrus - Southern Rain
DYEAR=2000
DGENRE=Country
TTITLE0=You Won't Be Lonely Now
TTITLE1=Southern Rain
TTITLE2=All I'm Thinking About Is You
TTITLE3=We The People
TTITLE4=I Will
TTITLE5=Love You Back
TTITLE6=Burn Down The Trailer Park
TTITLE7=Everywhere I Wanna Be
TTITLE8=Crazy 'Bout You Baby
TTITLE9=Without You
TTITLE10=Hey Elvis
TTITLE11=Data
EXTD=YEAR: 2000
EXTT0=
EXTT1=
EXTT2=
EXTT3=
EXTT4=
EXTT5=
EXTT6=
EXTT7=
EXTT8=
EXTT9=
EXTT10=
EXTT11=
PLAYORDER=
